# xmcd CD database file
#
# Track frame offsets:
#	150
#	13177
#	26592
#	40270
#	51040
#	63840
#	77495
#	89612
#	102677
#	114095
#	125532
#	138517
#	150297
#	161597
#	173425
#	185282
#	195375
#	205785
#
# Disc length: 2884 seconds
#
# Revision: 0
# Processed by: cddbd v1.4PL0 Copyright (c) Steve Scherf et al.
# Submitted via: CDex 1.40Release
#
DISCID=de0b4212
DTITLE=Robert Johnson - Anthologie
DYEAR=1995
DGENRE=Blues
TTITLE0=Kind hearted woman blues
TTITLE1=I believe i´ll dust my broom
TTITLE2=Sweet home chicago
TTITLE3=Rambling on my mind
TTITLE4=Come on in my kitchen
TTITLE5=Terraplane blues
TTITLE6=Phonograph blues
TTITLE7=32-20 blues
TTITLE8=Cross road blues
TTITLE9=Walking blues
TTITLE10=Preaching blues
TTITLE11=If i had possesion over judgement day
TTITLE12=Stones in my passway
TTITLE13=I´m a steady rollin´man
TTITLE14=Hellhound on my trail
TTITLE15=Little queen of spades
TTITLE16=Stop breakin´down
TTITLE17=Love in vain
EXTD=YEAR: 1995 ID3G: 0
EXTT0=
EXTT1=
EXTT2=
EXTT3=
EXTT4=
EXTT5=
EXTT6=
EXTT7=
EXTT8=
EXTT9=
EXTT10=
EXTT11=
EXTT12=
EXTT13=
EXTT14=
EXTT15=
EXTT16=
EXTT17=
PLAYORDER=
